# xmcd
# Track frame offsets:
# 150
# 12482
# 25415
# 35287
# 51717
# 64127
# 75457
# 89745
# 105345
# 117307
#
# Disc length: 1711 seconds
# Revision: 0
# Processed by: cddbd v1.4PL0 Copyright (c) Steve Scherf et al.
# Submitted via: VisiTrax 2.9.5.181 - For more info visit www.synapsa.com
#
DISCID=8206ad0a
DTITLE=Merle Haggard and Conway Twitty - Merle and Conway Super Hits
DYEAR=2001
DGENRE=Country
TTITLE0=Okie From Muskogee
TTITLE1=The Fightin' Side Of Me
TTITLE2=Mama Tried
TTITLE3=Hungry Eyes
TTITLE4=If We Make It Through December
TTITLE5=Hello Darlin'
TTITLE6=You've Never Been This Far Before
TTITLE7=Touch The Hand
TTITLE8=Linda On My Mind
TTITLE9=It's Only Make Believe
EXTD=
EXTT0=
EXTT1=
EXTT2=
EXTT3=
EXTT4=
EXTT5=
EXTT6=
EXTT7=
EXTT8=
EXTT9=
PLAYORDER=
